<?xml version="1.0" encoding="UTF-8"?><svg id="Layer_1" xmlns="http://www.w3.org/2000/svg" viewBox="0 0 600 143.72905"><path d="M86.18587,73.98573c1.14929-.37219,2.29514-.74063,3.52828-.98564,6.39885,1.19043,14.05327.92298,25.25437.53054,7.08867-.24844,15.91108-.55734,26.71818-.55734v-2.21753c-10.80741,0-19.62951-.30891-26.71849-.55734-11.20016-.39214-18.85397-.66021-25.25313.53085-1.23345-.24501-2.37993-.61376-3.52953-.98595,6.90787-4.58998,15.1611-12.15931,26.67111-22.73199,8.18995-7.5232,18.38297-16.88581,30.87238-27.70195l-1.45196-1.67639c-12.49533,10.82143-23.00069,19.65164-31.44188,26.74654-12.65431,10.63659-21.44243,18.03603-27.5651,24.21107-.88028-.3965-1.76991-.7425-2.63678-1.24311-.85596-.49407-1.71692-1.06014-2.5841-1.66767-.60753-.86719-1.1736-1.72814-1.66767-2.5841-.50061-.86719-.84661-1.7565-1.24311-2.63647,6.17504-6.12298,13.57448-14.91111,24.21107-27.56542,7.09521-8.44119,15.92542-18.94655,26.74654-31.44188L124.41967,0c-10.81613,12.48941-20.17875,22.68243-27.70195,30.87238-10.57237,11.51032-18.1417,19.76324-22.73199,26.67111-.37219-1.14929-.74094-2.29546-.98595-3.5289,1.19137-6.39947.92298-14.05234.53085-25.25375-.24844-7.08898-.55734-15.91108-.55734-26.71849h-2.21753c0,10.80741-.30891,19.62982-.55734,26.71849-.39214,11.20141-.66052,18.85428.53085,25.25375-.24501,1.23345-.61376,2.37962-.98595,3.5289-4.59029-6.90787-12.15962-15.16079-22.73199-26.67111C39.48813,22.68243,30.12552,12.48941,19.30938,0l-1.67639,1.45196c10.82143,12.49564,19.65133,23.001,26.74654,31.44219,10.63659,12.65431,18.03603,21.44212,24.21107,27.56479-.3965.88028-.74281,1.7696-1.24342,2.63678-.49407.85596-1.05982,1.71692-1.66735,2.5841-.86719.60753-1.72814,1.1736-2.5841,1.66767-.86719.50061-1.75619.84661-2.63647,1.24311-6.12298-6.17504-14.9108-13.57448-27.56542-24.21107-8.44119-7.0949-18.94655-15.92511-31.44188-26.74654l-1.45196,1.67639c12.48941,10.81613,22.68243,20.17875,30.87238,27.70195,11.51032,10.57269,19.76324,18.14202,26.67142,22.73199-1.14929.37219-2.29546.74094-3.5289.98595-6.39916-1.19106-14.05359-.92298-25.25406-.53085-7.08898.24844-15.91108.55734-26.71849.55734v2.21753c10.80741,0,19.62951.30891,26.71849.55734,11.20016.39214,18.85397.66052,25.25313-.53085,1.23345.24501,2.37962.61376,3.52922.98626-6.90787,4.58998-15.16079,12.15931-26.6708,22.73199-8.18995,7.52288-18.38297,16.8855-30.87238,27.70163l1.45196,1.6767c12.49533-10.82143,23.00069-19.65164,31.44188-26.74686,12.65431-10.63659,21.44212-18.03541,27.5651-24.21076.88028.3965,1.7696.7425,2.63678,1.24311.85565.49407,1.71629,1.05982,2.58348,1.66704.60753.8675,1.17391,1.72876,1.66798,2.58473.50061.86687.84692,1.7565,1.24342,2.63647-6.17504,6.12267-13.57448,14.9108-24.21107,27.5651-7.09521,8.44119-15.92542,18.94655-26.74654,31.44188l1.67639,1.45196c10.81613-12.48941,20.17875-22.68212,27.70195-30.87238,10.57237-11.51001,18.1417-19.76324,22.73199-26.67111.37219,1.14929.74094,2.29546.98595,3.5289-1.19137,6.39978-.92298,14.05234-.53085,25.25375.24844,7.08898.55734,15.91108.55734,26.71849h2.21753c0-10.80709.30891-19.62951.55734-26.71818.39214-11.20141.66052-18.85428-.53085-25.25406.24501-1.23345.61376-2.37962.98595-3.5289,4.59029,6.90787,12.15962,15.1611,22.73199,26.67111,7.5232,8.19026,16.88581,18.38297,27.70195,30.87238l1.67639-1.45196c-10.82112-12.49533-19.65133-23.00069-26.74654-31.44188-10.63659-12.65462-18.03603-21.44212-24.21107-27.5651.3965-.88028.7425-1.7696,1.24311-2.63678.49407-.85596,1.06014-1.71692,1.66767-2.5841.86719-.60753,1.72814-1.17329,2.5841-1.66735.86719-.50061,1.7565-.84661,2.63678-1.24342,6.12298,6.17535,14.9108,13.57479,27.5651,24.21138,8.44119,7.0949,18.94655,15.92511,31.44188,26.74654l1.45196-1.6767c-12.48941-10.81613-22.68243-20.17875-30.87238-27.70163-11.51001-10.57269-19.76292-18.14233-26.6708-22.7323Z" style="fill:#5000ff;"/><path d="M176.37564,17.5613h12.9628l28.04811,60.90049,28.04811-60.90049h12.96212l-36.09342,78.22151h-9.83362l-36.0941-78.22151Z" style="fill:#090e2c;"/><path d="M295.60942,87.29007c-5.36422,6.40842-13.55959,9.60991-24.58404,9.60991-3.20421,0-6.14584-.41059-8.82761-1.22903-2.68245-.81844-4.95568-1.97245-6.81696-3.46339-1.86264-1.48957-3.31538-3.27787-4.35754-5.36491-1.0442-2.08431-1.56459-4.39369-1.56459-6.92814,0-4.09632.98623-7.22414,2.96141-9.3862,1.97245-2.15933,4.48712-3.74302,7.54265-4.74971,3.05348-1.00532,6.4057-1.60006,10.05664-1.78694,3.64958-.18551,7.16958-.33556,10.55999-.44742,3.38904-.11185,6.40638-.33556,9.05132-.66976,2.64358-.33556,4.48712-1.13491,5.53132-2.4035-.29805-2.01065-.83754-3.68709-1.61984-5.02798s-1.88242-2.41987-3.29697-3.24104c-1.41591-.81844-3.20353-1.39681-5.36354-1.73238-2.16138-.3342-4.80495-.50198-7.93414-.50198-5.58725,0-9.53625.70795-11.84494,2.1225-2.30938,1.41591-3.46407,3.83851-3.46407,7.2637h-11.1745c0-3.12919.61452-5.95964,1.84423-8.49273,1.22903-2.53172,2.99755-4.69242,5.30762-6.48072,2.30801-1.7883,5.10164-3.16602,8.38088-4.13451,3.27719-.96713,6.92814-1.45274,10.95079-1.45274,9.61059,0,16.98546,2.01065,22.12598,6.0333,5.13983,4.02402,7.71043,10.57976,7.71043,19.66723v31.28915h-11.1745v-8.49273ZM260.63318,79.24476c0,2.01065.9303,3.59434,2.79363,4.74834,1.86128,1.15674,4.39437,1.73238,7.59858,1.73238,8.194,0,14.20889-1.30269,18.04671-3.9108,3.83578-2.60675,6.01489-6.85311,6.53733-12.7391-1.49162.89347-3.40814,1.45274-5.75503,1.67645s-4.80495.35466-7.37487.39149c-2.5706.03819-5.15961.07502-7.76636.11185-2.60879.03819-4.95568.27827-7.03999.72569-2.08635.44742-3.7819,1.22903-5.08459,2.34621-1.30406,1.11854-1.9554,2.7568-1.9554,4.91749Z" style="fill:#090e2c;"/><path d="M313.48699,39.9103h10.05732l1.11718,8.15717c2.38372-3.12919,5.40037-5.4563,9.052-6.98406,3.6489-1.5264,7.5979-2.29028,11.84426-2.29028,8.04668,0,14.30369,2.32848,18.77376,6.98406,4.47007,4.65695,6.70443,11.15677,6.70443,19.49945v30.50617h-11.1745v-26.81908c0-6.77809-1.34089-11.63829-4.02266-14.58196-2.68177-2.94231-7.11501-4.41415-13.297-4.41415-5.81096,0-10.2442,1.60279-13.29837,4.80427-3.05553,3.20421-4.58193,7.93482-4.58193,14.19183v26.81908h-11.1745v-55.87251Z" style="fill:#090e2c;"/><path d="M383.77504,49.96762h-9.3862v-10.05732h9.3862v-10.83894l10.28103-4.47007h.89347v15.30901h11.84563v10.05732h-11.84563v24.91892c0,3.72529.6152,6.27747,1.84423,7.65382,1.22903,1.38044,3.48112,2.06794,6.76036,2.06794h3.24104v11.1745h-3.24104c-3.12919,0-5.92281-.37239-8.38088-1.11718-2.45806-.74342-4.526-1.93699-6.20245-3.5766-1.67508-1.63689-2.96004-3.77985-3.85488-6.42479-.89347-2.64358-1.34089-5.90372-1.34089-9.77769v-24.91892Z" style="fill:#090e2c;"/><path d="M458.5318,87.29007c-5.36491,6.40842-13.56027,9.60991-24.58472,9.60991-3.20421,0-6.14516-.41059-8.82693-1.22903-2.68314-.81844-4.95568-1.97245-6.81765-3.46339-1.86196-1.48957-3.3147-3.27787-4.35686-5.36491-1.04488-2.08431-1.56459-4.39369-1.56459-6.92814,0-4.09632.98623-7.22414,2.96141-9.3862,1.97245-2.15933,4.48644-3.74302,7.54197-4.74971,3.05416-1.00532,6.4057-1.60006,10.05732-1.78694,3.6489-.18551,7.16958-.33556,10.5593-.44742s6.40706-.33556,9.052-.66976c2.64358-.33556,4.48644-1.13491,5.53132-2.4035-.29873-2.01065-.83754-3.68709-1.62052-5.02798-.78161-1.34089-1.88242-2.41987-3.29697-3.24104-1.41591-.81844-3.20285-1.39681-5.36354-1.73238-2.16069-.3342-4.80427-.50198-7.93346-.50198-5.58725,0-9.53625.70795-11.84563,2.1225-2.30938,1.41591-3.46339,3.83851-3.46339,7.2637h-11.1745c0-3.12919.61383-5.95964,1.84423-8.49273,1.22903-2.53172,2.99687-4.69242,5.30762-6.48072,2.30801-1.7883,5.10164-3.16602,8.38088-4.13451,3.27651-.96713,6.92814-1.45274,10.95079-1.45274,9.60991,0,16.98546,2.01065,22.12529,6.0333,5.13983,4.02402,7.71112,10.57976,7.71112,19.66723v31.28915h-11.1745v-8.49273ZM423.55555,79.24476c0,2.01065.9303,3.59434,2.79363,4.74834,1.8606,1.15674,4.39369,1.73238,7.5979,1.73238,8.194,0,14.20957-1.30269,18.04671-3.9108,3.83578-2.60675,6.01557-6.85311,6.53801-12.7391-1.4923.89347-3.40882,1.45274-5.75503,1.67645-2.34757.22371-4.80564.35466-7.37555.39149-2.56992.03819-5.15893.07502-7.76568.11185-2.60948.03819-4.95568.27827-7.03999.72569-2.08703.44742-3.78258,1.22903-5.08527,2.34621-1.30406,1.11854-1.95472,2.7568-1.95472,4.91749Z" style="fill:#090e2c;"/><path d="M537.30985,98.35272c0,9.3862-2.56992,16.51895-7.70975,21.39961-5.1412,4.87793-12.62724,7.31963-22.46086,7.31963-9.3862,0-16.59397-1.99428-21.62331-5.97874-5.02798-3.98583-7.54197-9.70403-7.54197-17.15324h11.1745c0,3.79895,1.60006,6.74126,4.80427,8.82829,3.20285,2.08431,7.59926,3.12919,13.18651,3.12919,11.91792,0,17.87893-5.84915,17.87893-17.54473v-10.05732c-2.7568,2.83318-5.90508,4.97342-9.44213,6.42616-3.53977,1.45274-7.31963,2.17843-11.34228,2.17843-3.79895,0-7.45058-.80071-10.95079-2.40214-3.50294-1.60142-6.59394-3.74302-9.27571-6.42479-2.68177-2.68314-4.80427-5.77276-6.36887-9.27571-1.56459-3.50022-2.34621-7.15184-2.34621-10.95079,0-4.02266.76252-7.80251,2.29028-11.34228,1.5264-3.53705,3.59297-6.61031,6.20245-9.21842,2.60675-2.60675,5.67864-4.67468,9.21842-6.20245,3.53705-1.5264,7.31963-2.29028,11.34228-2.29028,7.74658,0,15.01028,2.86865,21.78973,8.60458l1.11718-7.48741h10.05732v58.44242ZM525.68929,67.84655c0-2.68177-.48561-5.12074-1.45274-7.31963-.96986-2.19616-2.31074-4.07858-4.02402-5.64318s-3.79895-2.77453-6.25701-3.63117c-2.45806-.85527-5.13983-1.28496-8.04531-1.28496-2.83182,0-5.4031.42968-7.71112,1.28496-2.30938.85664-4.30229,2.06657-5.97738,3.63117-1.67645,1.56459-2.96141,3.44702-3.85624,5.64318-.89347,2.19889-1.34089,4.63785-1.34089,7.31963s.44742,5.12347,1.34089,7.31963c.89483,2.19752,2.17979,4.07858,3.85624,5.64318,1.67508,1.56459,3.668,2.77589,5.97738,3.63117,2.30801.858,4.8793,1.28496,7.71112,1.28496,2.90548,0,5.58725-.42696,8.04531-1.28496,2.45806-.85527,4.54373-2.06657,6.25701-3.63117s3.05416-3.44565,4.02402-5.64318c.96713-2.19616,1.45274-4.63785,1.45274-7.31963Z" style="fill:#090e2c;"/><path d="M600,70.75203h-45.70333c.59474,4.62012,2.40214,8.26902,5.41947,10.95079s6.90904,4.02266,11.67648,4.02266c4.24637,0,7.80387-1.07898,10.67252-3.23968,2.86592-2.16069,4.822-5.1412,5.86689-8.94015h11.95612c-.67112,3.42792-1.90016,6.55574-3.68709,9.3862-1.7883,2.83182-3.93126,5.29125-6.42616,7.37555-2.49626,2.08703-5.30762,3.70619-8.4368,4.8602-3.12919,1.15537-6.44389,1.73238-9.94547,1.73238-4.02266,0-7.80387-.76388-11.34228-2.29028s-6.61167-3.59297-9.21842-6.20245c-2.60811-2.60675-4.67605-5.68001-6.20108-9.21842-1.52776-3.53705-2.29165-7.31963-2.29165-11.34228s.76388-7.80251,2.29165-11.34228c1.52504-3.53705,3.59297-6.61031,6.20108-9.21842,2.60675-2.60675,5.68001-4.67468,9.21842-6.20245,3.53841-1.5264,7.31963-2.29028,11.34228-2.29028,3.5766,0,6.96497.59746,10.16918,1.7883,3.20285,1.1922,6.0715,2.86865,8.60458,5.02798,2.53172,2.16206,4.65422,4.71288,6.36887,7.65382,1.71328,2.94504,2.86729,6.16562,3.46475,9.6672v7.82161ZM587.70832,60.69471c-1.19357-3.42519-3.20421-6.07013-6.03467-7.93346-2.83182-1.86196-6.25838-2.79363-10.28103-2.79363s-7.43012.9494-10.22374,2.84955c-2.79363,1.89879-4.7879,4.526-5.97874,7.87753h32.51818Z" style="fill:#090e2c;"/><path d="M336.47793,124.35143c0,1.20721-.21689,2.34621-.65339,3.41974-.43514,1.07216-1.03397,2.01065-1.79376,2.81545s-1.66417,1.44183-2.71451,1.91107c-1.0517.46924-2.1907.70386-3.41974.70386-1.54277,0-2.81545-.26736-3.82214-.8048-1.00532-.53608-1.82104-1.27405-2.44715-2.21253v2.71587h-2.68177v-24.1373h2.68177v9.68902c.62611-.93848,1.44183-1.6819,2.44715-2.23026,1.00669-.54699,2.27937-.82117,3.82214-.82117,1.22903,0,2.36803.23462,3.41974.70386,1.05034.46924,1.95472,1.10626,2.71451,1.91107s1.35862,1.74874,1.79376,2.83318c.4365,1.08444.65339,2.25209.65339,3.50294ZM321.62725,123.01054v2.71587c.11185.66976.33556,1.29587.67112,1.87697s.75979,1.0899,1.27405,1.52504c.51426.4365,1.10626.78298,1.77603,1.03943.66976.25781,1.40773.38603,2.21253.38603.93848,0,1.7883-.17324,2.54809-.51971s1.39681-.8048,1.91107-1.37499c.51289-.57018.90984-1.22903,1.18947-1.97791s.41877-1.52504.41877-2.32984c0-.82663-.13914-1.62052-.41877-2.38031s-.67658-1.42955-1.18947-2.01065c-.51426-.5811-1.15128-1.04488-1.91107-1.39136s-1.60961-.51971-2.54809-.51971c-.8048,0-1.54822.12822-2.2289.38467-.68204.25781-1.27405.60974-1.77603,1.05716-.50334.44742-.92211.97122-1.25768,1.57551-.33556.60292-.55927,1.25086-.67112,1.94381Z" style="fill:#090e2c;"/><path d="M340.73658,140.04102l2.88229-7.27461-6.50254-17.03047h2.98323l4.96114,13.34202,5.26396-13.34202h2.98323l-9.72176,24.30509h-2.84955Z" style="fill:#090e2c;"/><path d="M375.73465,110.99304c1.07216.3683,1.98882.88801,2.74861,1.55777.75979.67112,1.34634,1.48139,1.75966,2.43078.41331.95076.62065,2.00655.62065,3.16875s-.20734,2.2289-.62065,3.20148c-.41331.97122-.99987,1.80467-1.75966,2.49626-.75979.69431-1.67645,1.2304-2.74861,1.60961-1.07353.38058-2.26982.57018-3.58752.57018h-5.43038v6.87221h-2.84955v-22.46086h8.27993c1.3177,0,2.51399.18415,3.58752.55381ZM371.84567,123.3461c.91529,0,1.74329-.12277,2.47989-.3683.73796-.2469,1.36953-.59201,1.8947-1.03943s.92757-.9835,1.20721-1.60961c.27827-.62475.41877-1.32997.41877-2.11159,0-.78298-.1405-1.48684-.41877-2.11295-.27964-.62475-.68204-1.15537-1.20721-1.59188-.52517-.43514-1.15674-.77616-1.8947-1.02306-.7366-.24553-1.56459-.3683-2.47989-.3683h-5.12892v10.22511h5.12892Z" style="fill:#090e2c;"/><path d="M384.04732,115.73593h2.68177v3.78804c.69295-1.3859,1.63143-2.4185,2.81681-3.10054,1.18402-.68204,2.46898-1.02306,3.85488-1.02306v2.91639c-.73796,0-1.50321.1405-2.2971.42014-.79253.27964-1.51412.68613-2.16206,1.22358-.64794.53608-1.17856,1.20175-1.59188,1.99428-.41468.79389-.62065,1.71601-.62065,2.76498v8.18036h-2.68177v-17.16415Z" style="fill:#090e2c;"/><path d="M394.90808,124.31869c0-1.25222.23462-2.41987.70386-3.50431.46924-1.08308,1.10626-2.02702,1.91107-2.83182s1.74874-1.43637,2.83318-1.8947c1.08308-.45697,2.23981-.68749,3.46884-.68749s2.38577.23053,3.47021.68749c1.08308.45833,2.02838,1.0899,2.83318,1.8947.80344.8048,1.44046,1.74874,1.9097,2.83182.46924,1.08444.70386,2.25209.70386,3.50431,0,1.22903-.23462,2.37895-.70386,3.45247-.46924,1.07216-1.10626,2.01065-1.9097,2.81545-.8048.8048-1.75011,1.44183-2.83318,1.91107-1.08444.46924-2.24117.70386-3.47021.70386s-2.38577-.23462-3.46884-.70386c-1.08444-.46924-2.02838-1.10626-2.83318-1.91107s-1.44183-1.74329-1.91107-2.81545c-.46924-1.07353-.70386-2.22344-.70386-3.45247ZM397.79174,124.31869c0,.80344.13914,1.58096.41877,2.32984.27827.74888.68067,1.41318,1.20721,1.99428.5238.5811,1.16083,1.04488,1.9097,1.39136s1.58096.51971,2.49762.51971,1.74874-.17324,2.49762-.51971,1.38044-.81026,1.8947-1.39136c.51289-.5811.90984-1.2454,1.18947-1.99428s.41877-1.5264.41877-2.32984c0-.8048-.13914-1.58778-.41877-2.34757s-.67658-1.42955-1.18947-2.01065c-.51426-.5811-1.14582-1.04488-1.8947-1.39136s-1.58096-.51971-2.49762-.51971-1.74874.17324-2.49762.51971-1.3859.81026-1.9097,1.39136c-.52653.5811-.92893,1.25086-1.20721,2.01065-.27964.75979-.41877,1.54277-.41877,2.34757Z" style="fill:#090e2c;"/><path d="M426.3541,108.76278v2.51399h-3.18511c-1.11718,0-1.92198.30282-2.41305.90575-.49243.60292-.73796,1.57551-.73796,2.91639v.63702h5.3308v2.51399h-5.3308v14.65016h-2.68177v-14.65016h-3.08417v-2.51399h3.08417v-.63702c0-2.07885.49107-3.65436,1.47593-4.72652.98213-1.07353,2.43487-1.60961,4.35686-1.60961h3.18511Z" style="fill:#090e2c;"/><path d="M427.55994,110.40649c0-.26872.05047-.52517.15141-.77207.09958-.24553.24008-.45697.41877-.63702.17869-.17869.39013-.31783.63702-.41877.24553-.10094.50334-.15005.7707-.15005.26872,0,.52517.04911.7707.15005s.45833.24008.63702.41877c.17869.18006.31919.39149.42014.63702.09958.2469.15005.50334.15005.77207,0,.55791-.18961,1.02715-.57018,1.40773-.37921.37921-.84982.56882-1.40773.56882-.55927,0-1.02851-.18961-1.40773-.56882-.38058-.38058-.57018-.84982-.57018-1.40773ZM428.19696,115.73593h2.68177v17.16415h-2.68177v-17.16415Z" style="fill:#090e2c;"/><path d="M435.40474,108.76278h2.68177v24.1373h-2.68177v-24.1373Z" style="fill:#090e2c;"/><path d="M444.11981,125.08939c.08866.75979.296,1.48002.62065,2.16206.32329.68204.74206,1.26859,1.25631,1.75966.51426.49243,1.12809.88392,1.84423,1.1731.71478.29055,1.49639.4365,2.34621.4365,1.16219,0,2.14569-.24008,2.95049-.7216.8048-.48015,1.40773-1.07762,1.81013-1.79239h3.25195c-.26872.75979-.64248,1.45274-1.12263,2.07749-.48152.62611-1.06261,1.16219-1.74329,1.60961-.68204.44742-1.4582.79389-2.32984,1.03943s-1.81013.3683-2.81681.3683c-1.22903,0-2.38577-.23462-3.46884-.70386-1.08444-.46924-2.02838-1.10626-2.83318-1.91107s-1.44183-1.74329-1.91107-2.81545c-.46924-1.07353-.70386-2.22344-.70386-3.45247,0-1.25222.22371-2.41987.67112-3.50431.44605-1.08308,1.06125-2.02702,1.84287-2.83182.78298-.8048,1.70373-1.43637,2.76634-1.8947,1.06125-.45697,2.20707-.68749,3.4361-.68749,1.20721,0,2.32438.18006,3.35153.53745,1.02851.35739,1.9288.85937,2.6995,1.5073.7707.6493,1.39681,1.42546,1.87697,2.32984.48015.90575.76525,1.91789.85527,3.03507.04365.44742.06138.843.05047,1.18947-.01228.34648-.02865.70932-.05047,1.0899h-14.65016ZM455.71854,122.81002c-.06684-.73796-.25099-1.40227-.55245-1.99564-.30146-.59201-.70386-1.09944-1.20721-1.52504-.50334-.42423-1.0899-.74888-1.75966-.97259-.67112-.22234-1.40773-.3342-2.21253-.3342-.78298,0-1.49775.12277-2.14569.3683s-1.21812.58655-1.70919,1.02306c-.49243.43514-.90029.94394-1.22358,1.52504-.32465.5811-.55381,1.21812-.68749,1.91107h11.49779Z" style="fill:#090e2c;"/></svg>