<?xml version="1.0" encoding="UTF-8"?><svg id="Layer_1" xmlns="http://www.w3.org/2000/svg" viewBox="0 0 400 400"><path d="M239.85652,205.90335c3.19848-1.0358,6.38742-2.06118,9.81926-2.74304,17.80808,3.31299,39.11046,2.56867,70.28328,1.47649,19.72786-.6914,44.28078-1.55109,74.35707-1.55109v-6.17141c-30.07716,0-54.62921-.85969-74.35794-1.55109-31.17022-1.09132-52.47086-1.83737-70.27981,1.47736-3.43271-.68186-6.62338-1.70811-9.82273-2.74391,19.22471-12.77397,42.19357-33.83952,74.22608-63.26346,22.79275-20.93716,51.16007-46.99345,85.91827-77.09491l-4.04082-4.66543c-34.77469,30.1162-64.01124,54.6908-87.5032,74.43602-35.21711,29.60177-59.6746,50.19454-76.71408,67.37975-2.44983-1.10346-4.92568-2.06639-7.3382-3.4596-2.38216-1.37499-4.7782-2.95037-7.19159-4.64114-1.69076-2.41339-3.26615-4.80943-4.64114-7.19159-1.39321-2.41339-2.35614-4.88837-3.4596-7.33733,17.18522-17.04034,37.77798-41.49783,67.37975-76.71494,19.74608-23.49196,44.32068-52.72851,74.43602-87.5032L346.26172,0c-30.10145,34.75821-56.15775,63.12552-77.09491,85.91827-29.42307,32.03338-50.48862,55.00137-63.26346,74.22608-1.0358-3.19848-2.06205-6.38829-2.74391-9.82099,3.31559-17.80982,2.56867-39.10786,1.47736-70.28155-.6914-19.72873-1.55109-44.28078-1.55109-74.35794h-6.17141c0,30.07716-.85969,54.63008-1.55109,74.35794-1.09132,31.17369-1.83824,52.47173,1.47736,70.28155-.68186,3.43271-1.70811,6.62251-2.74391,9.82099-12.77484-19.22471-33.84039-42.1927-63.26346-74.22608C109.89603,63.12552,83.83974,34.75821,53.73828,0l-4.66543,4.04082c30.1162,34.77556,54.68993,64.01211,74.43602,87.50407,29.60177,35.21711,50.19454,59.67373,67.37975,76.71321-1.10346,2.44983-2.06726,4.92481-3.46047,7.3382-1.37499,2.38216-2.94951,4.7782-4.64027,7.19159-2.41339,1.69076-4.80943,3.26615-7.19159,4.64114-2.41339,1.39321-4.88751,2.35614-7.33733,3.4596-17.04034-17.18522-41.49696-37.77798-76.71494-67.37975-23.49196-19.74521-52.72851-44.31981-87.5032-74.43602l-4.04082,4.66543c34.75821,30.10145,63.12552,56.15775,85.91827,77.09491,32.03338,29.42394,55.00137,50.48949,74.22695,63.26346-3.19848,1.0358-6.38829,2.06205-9.82099,2.74391-17.80895-3.31473-39.11133-2.56867-70.28242-1.47736-19.72873.6914-44.28078,1.55109-74.35794,1.55109v6.17141c30.07716,0,54.62921.85969,74.35794,1.55109,31.17022,1.09132,52.47086,1.83824,70.27981-1.47736,3.43271.68186,6.62251,1.70811,9.82186,2.74478-19.22471,12.77397-42.1927,33.83952-74.22521,63.26346-22.79275,20.93629-51.16007,46.99259-85.91827,77.09404l4.04082,4.66629c34.77469-30.1162,64.01124-54.6908,87.5032-74.43688,35.21711-29.60177,59.67373-50.1928,76.71408-67.37889,2.44983,1.10346,4.92481,2.06639,7.3382,3.4596,2.38129,1.37499,4.77647,2.94951,7.18986,4.6394,1.69076,2.41426,3.26701,4.81117,4.642,7.19333,1.39321,2.41252,2.357,4.88837,3.46047,7.33733-17.18522,17.03948-37.77798,41.49696-67.37975,76.71408-19.74608,23.49196-44.32068,52.72851-74.43602,87.5032l4.66543,4.04082c30.10145-34.75821,56.15775-63.12466,77.09491-85.91827,29.42307-32.03251,50.48862-55.00137,63.26346-74.22608,1.0358,3.19848,2.06205,6.38829,2.74391,9.82099-3.31559,17.81069-2.56867,39.10786-1.47736,70.28155.6914,19.72873,1.55109,44.28078,1.55109,74.35794h6.17141c0-30.0763.85969-54.62921,1.55109-74.35707,1.09132-31.17369,1.83824-52.47173-1.47736-70.28242.68186-3.43271,1.70811-6.62251,2.74391-9.82099,12.77484,19.22471,33.84039,42.19357,63.26346,74.22608,20.93716,22.79362,46.99345,51.16007,77.09491,85.91827l4.66543-4.04082c-30.11533-34.77469-54.68993-64.01124-74.43602-87.5032-29.60177-35.21798-50.19454-59.67373-67.37975-76.71408,1.10346-2.44983,2.06639-4.92481,3.4596-7.3382,1.37499-2.38216,2.95037-4.7782,4.64114-7.19159,2.41339-1.69076,4.80943-3.26528,7.19159-4.64027,2.41339-1.39321,4.88837-2.35614,7.3382-3.46047,17.04034,17.18608,41.49696,37.77885,76.71408,67.38062,23.49196,19.74521,52.72851,44.31981,87.5032,74.43602l4.04082-4.66629c-34.75821-30.10145-63.12552-56.15775-85.91827-77.09404-32.03251-29.42394-55.0005-50.49036-74.22521-63.26432Z" style="fill:#5000ff;"/></svg>